<svg xmlns="http://www.w3.org/2000/svg" width="1440" height="900" viewBox="0 0 1440 900" role="img" aria-label="宿舍报修与工单管理系统-overview">
  <defs>
    <filter id="shadow" x="-18%" y="-18%" width="136%" height="136%">
      <feDropShadow dx="0" dy="24" stdDeviation="24" flood-color="#102033" flood-opacity=".16"/>
    </filter>
    <linearGradient id="brand" x1="0" x2="1" y1="0" y2="1">
      <stop offset="0" stop-color="#334155"/>
      <stop offset="1" stop-color="#13b8a6"/>
    </linearGradient>
  </defs>
  <rect width="1440" height="900" fill="#eef2f7"/>
  <rect x="88" y="70" width="1264" height="760" rx="34" fill="#fff" filter="url(#shadow)"/>
  
    <rect x="128" y="108" width="1184" height="76" rx="24" fill="#0f172a"/>
    <text x="168" y="156" fill="#fff" font-family="Arial, sans-serif" font-size="30" font-weight="900">宿舍报修与工单管理系统</text>
    <rect x="154" y="238" width="332" height="456" rx="24" fill="#fff7ed" stroke="#e2e8f0"/><text x="188" y="292" fill="#0f172a" font-family="Arial, sans-serif" font-size="23" font-weight="900">待派单</text><rect x="534" y="238" width="332" height="456" rx="24" fill="#ecfeff" stroke="#e2e8f0"/><text x="568" y="292" fill="#0f172a" font-family="Arial, sans-serif" font-size="23" font-weight="900">处理中</text><rect x="914" y="238" width="332" height="456" rx="24" fill="#f0fdf4" stroke="#e2e8f0"/><text x="948" y="292" fill="#0f172a" font-family="Arial, sans-serif" font-size="23" font-weight="900">已完成</text>
    <rect x="188" y="326" width="264" height="94" rx="18" fill="#fff" stroke="#e2e8f0"/><text x="214" y="364" fill="#111827" font-family="Arial, sans-serif" font-size="16" font-weight="900">3号楼502 水龙头漏水</text><rect x="214" y="386" width="90" height="20" rx="10" fill="#14b8a6" opacity=".18"/><text x="230" y="401" fill="#0f766e" font-family="Arial, sans-serif" font-size="12" font-weight="900">宿舍维修</text><rect x="188" y="458" width="264" height="94" rx="18" fill="#fff" stroke="#e2e8f0"/><text x="214" y="496" fill="#111827" font-family="Arial, sans-serif" font-size="16" font-weight="900">8号楼 网络异常</text><rect x="214" y="518" width="90" height="20" rx="10" fill="#14b8a6" opacity=".18"/><text x="230" y="533" fill="#0f766e" font-family="Arial, sans-serif" font-size="12" font-weight="900">宿舍维修</text><rect x="568" y="326" width="264" height="94" rx="18" fill="#fff" stroke="#e2e8f0"/><text x="594" y="364" fill="#111827" font-family="Arial, sans-serif" font-size="16" font-weight="900">6号楼 空调不制冷</text><rect x="594" y="386" width="90" height="20" rx="10" fill="#14b8a6" opacity=".18"/><text x="610" y="401" fill="#0f766e" font-family="Arial, sans-serif" font-size="12" font-weight="900">宿舍维修</text><rect x="568" y="458" width="264" height="94" rx="18" fill="#fff" stroke="#e2e8f0"/><text x="594" y="496" fill="#111827" font-family="Arial, sans-serif" font-size="16" font-weight="900">1号楼 门锁损坏</text><rect x="594" y="518" width="90" height="20" rx="10" fill="#14b8a6" opacity=".18"/><text x="610" y="533" fill="#0f766e" font-family="Arial, sans-serif" font-size="12" font-weight="900">宿舍维修</text><rect x="948" y="326" width="264" height="94" rx="18" fill="#fff" stroke="#e2e8f0"/><text x="974" y="364" fill="#111827" font-family="Arial, sans-serif" font-size="16" font-weight="900">12号楼 照明故障</text><rect x="974" y="386" width="90" height="20" rx="10" fill="#14b8a6" opacity=".18"/><text x="990" y="401" fill="#0f766e" font-family="Arial, sans-serif" font-size="12" font-weight="900">宿舍维修</text><rect x="948" y="458" width="264" height="94" rx="18" fill="#fff" stroke="#e2e8f0"/><text x="974" y="496" fill="#111827" font-family="Arial, sans-serif" font-size="16" font-weight="900">5号楼 洗衣机报修</text><rect x="974" y="518" width="90" height="20" rx="10" fill="#14b8a6" opacity=".18"/><text x="990" y="533" fill="#0f766e" font-family="Arial, sans-serif" font-size="12" font-weight="900">宿舍维修</text>
</svg>