<svg xmlns="http://www.w3.org/2000/svg" width="1440" height="900" viewBox="0 0 1440 900" role="img" aria-label="农产品销售商城系统-manage">
  <defs>
    <filter id="shadow" x="-18%" y="-18%" width="136%" height="136%">
      <feDropShadow dx="0" dy="24" stdDeviation="24" flood-color="#102033" flood-opacity=".16"/>
    </filter>
    <linearGradient id="brand" x1="0" x2="1" y1="0" y2="1">
      <stop offset="0" stop-color="#f97316"/>
      <stop offset="1" stop-color="#13b8a6"/>
    </linearGradient>
  </defs>
  <rect width="1440" height="900" fill="#fff7ed"/>
  <rect x="88" y="70" width="1264" height="760" rx="34" fill="#fff" filter="url(#shadow)"/>
  
    
  <rect x="128" y="108" width="1184" height="68" rx="24" fill="#f8fafc"/>
  <text x="168" y="148" fill="#0f172a" font-family="Arial, sans-serif" font-size="26" font-weight="900">农产品销售商城系统</text>
  <text x="1008" y="148" fill="#64748b" font-family="Arial, sans-serif" font-size="14" font-weight="700">运营工作台</text>
    
  <rect x="154" y="222" width="178" height="96" rx="22" fill="#fff" stroke="#e2e8f0"/>
  <text x="176" y="255" fill="#64748b" font-family="Arial, sans-serif" font-size="13" font-weight="800">今日订单</text>
  <text x="176" y="294" fill="#f97316" font-family="Arial, sans-serif" font-size="30" font-weight="900">328</text>
    
  <rect x="354" y="222" width="178" height="96" rx="22" fill="#fff" stroke="#e2e8f0"/>
  <text x="376" y="255" fill="#64748b" font-family="Arial, sans-serif" font-size="13" font-weight="800">待发货</text>
  <text x="376" y="294" fill="#16a34a" font-family="Arial, sans-serif" font-size="30" font-weight="900">46</text>
    
  <rect x="554" y="222" width="178" height="96" rx="22" fill="#fff" stroke="#e2e8f0"/>
  <text x="576" y="255" fill="#64748b" font-family="Arial, sans-serif" font-size="13" font-weight="800">销售额</text>
  <text x="576" y="294" fill="#0f766e" font-family="Arial, sans-serif" font-size="30" font-weight="900">¥86,420</text>
    <rect x="154" y="362" width="676" height="346" rx="22" fill="#fff" stroke="#e2e8f0"/>
    <text x="190" y="414" fill="#0f172a" font-family="Arial, sans-serif" font-size="23" font-weight="900">商品货架</text>
    <rect x="190" y="448" width="254" height="86" rx="20" fill="#fee2e2"/><circle cx="226" cy="491" r="24" fill="#fff" opacity=".76"/><text x="266" y="486" fill="#111827" font-family="Arial, sans-serif" font-size="16" font-weight="900">丹东草莓礼盒</text><text x="266" y="512" fill="#f97316" font-family="Arial, sans-serif" font-size="18" font-weight="900">¥128</text><rect x="490" y="448" width="254" height="86" rx="20" fill="#fef3c7"/><circle cx="526" cy="491" r="24" fill="#fff" opacity=".76"/><text x="566" y="486" fill="#111827" font-family="Arial, sans-serif" font-size="16" font-weight="900">五常大米 5kg</text><text x="566" y="512" fill="#f97316" font-family="Arial, sans-serif" font-size="18" font-weight="900">¥69</text><rect x="190" y="560" width="254" height="86" rx="20" fill="#dcfce7"/><circle cx="226" cy="603" r="24" fill="#fff" opacity=".76"/><text x="266" y="598" fill="#111827" font-family="Arial, sans-serif" font-size="16" font-weight="900">有机鸡蛋 30枚</text><text x="266" y="624" fill="#f97316" font-family="Arial, sans-serif" font-size="18" font-weight="900">¥42</text><rect x="490" y="560" width="254" height="86" rx="20" fill="#ffedd5"/><circle cx="526" cy="603" r="24" fill="#fff" opacity=".76"/><text x="566" y="598" fill="#111827" font-family="Arial, sans-serif" font-size="16" font-weight="900">赣南脐橙礼箱</text><text x="566" y="624" fill="#f97316" font-family="Arial, sans-serif" font-size="18" font-weight="900">¥98</text>
    <rect x="876" y="222" width="350" height="486" rx="22" fill="#fff7ed" stroke="#e2e8f0"/>
    <text x="914" y="282" fill="#0f172a" font-family="Arial, sans-serif" font-size="24" font-weight="900">订单履约</text>
    <rect x="930" y="526" width="28" height="82" rx="14" fill="#f97316" opacity=".72"/><rect x="984" y="554" width="28" height="54" rx="14" fill="#16a34a" opacity=".72"/><rect x="1038" y="480" width="28" height="128" rx="14" fill="#f97316" opacity=".72"/><rect x="1092" y="512" width="28" height="96" rx="14" fill="#16a34a" opacity=".72"/><rect x="1146" y="462" width="28" height="146" rx="14" fill="#f97316" opacity=".72"/>
    <rect x="914" y="634" width="238" height="16" rx="8" fill="#fed7aa"/><rect x="914" y="634" width="174" height="16" rx="8" fill="#f97316"/>
</svg>