<svg xmlns="http://www.w3.org/2000/svg" width="1440" height="900" viewBox="0 0 1440 900" role="img" aria-label="校园二手交易管理平台-overview">
  <defs>
    <filter id="shadow" x="-18%" y="-18%" width="136%" height="136%">
      <feDropShadow dx="0" dy="24" stdDeviation="24" flood-color="#102033" flood-opacity=".16"/>
    </filter>
    <linearGradient id="brand" x1="0" x2="1" y1="0" y2="1">
      <stop offset="0" stop-color="#0f766e"/>
      <stop offset="1" stop-color="#13b8a6"/>
    </linearGradient>
  </defs>
  <rect width="1440" height="900" fill="#f4f8fb"/>
  <rect x="88" y="70" width="1264" height="760" rx="34" fill="#fff" filter="url(#shadow)"/>
  
    <rect x="88" y="70" width="226" height="760" rx="34" fill="url(#brand)"/>
    <text x="132" y="142" fill="#fff" font-family="Arial, sans-serif" font-size="24" font-weight="900">Campus Market</text>
    <text x="138" y="226" fill="#fff" opacity=".98" font-family="Arial, sans-serif" font-size="16" font-weight="800">商品审核</text><text x="138" y="284" fill="#fff" opacity=".64" font-family="Arial, sans-serif" font-size="16" font-weight="800">交易记录</text><text x="138" y="342" fill="#fff" opacity=".64" font-family="Arial, sans-serif" font-size="16" font-weight="800">用户管理</text><text x="138" y="400" fill="#fff" opacity=".64" font-family="Arial, sans-serif" font-size="16" font-weight="800">数据统计</text>
    <text x="354" y="142" fill="#0f172a" font-family="Arial, sans-serif" font-size="34" font-weight="900">校园二手交易管理平台</text>
    
  <rect x="354" y="188" width="178" height="96" rx="22" fill="#fff" stroke="#e2e8f0"/>
  <text x="376" y="221" fill="#64748b" font-family="Arial, sans-serif" font-size="13" font-weight="800">在售商品</text>
  <text x="376" y="260" fill="#0f766e" font-family="Arial, sans-serif" font-size="30" font-weight="900">1,286</text>
    
  <rect x="554" y="188" width="178" height="96" rx="22" fill="#fff" stroke="#e2e8f0"/>
  <text x="576" y="221" fill="#64748b" font-family="Arial, sans-serif" font-size="13" font-weight="800">待审核</text>
  <text x="576" y="260" fill="#f97316" font-family="Arial, sans-serif" font-size="30" font-weight="900">38</text>
    
  <rect x="754" y="188" width="178" height="96" rx="22" fill="#fff" stroke="#e2e8f0"/>
  <text x="776" y="221" fill="#64748b" font-family="Arial, sans-serif" font-size="13" font-weight="800">交易额</text>
  <text x="776" y="260" fill="#0ea5e9" font-family="Arial, sans-serif" font-size="30" font-weight="900">¥24,830</text>
    <rect x="354" y="326" width="594" height="326" rx="22" fill="#fff" stroke="#e2e8f0"/>
    <text x="386" y="374" fill="#0f172a" font-family="Arial, sans-serif" font-size="22" font-weight="900">商品审核列表</text>
    <rect x="386" y="408" width="516" height="42" rx="13" fill="#f8fafc"/><text x="408" y="435" fill="#111827" font-family="Arial, sans-serif" font-size="15" font-weight="800">MacBook Air 2020</text><text x="608" y="435" fill="#64748b" font-family="Arial, sans-serif" font-size="14" font-weight="700">数码</text><text x="724" y="435" fill="#0f766e" font-family="Arial, sans-serif" font-size="14" font-weight="900">待审核</text><text x="824" y="435" fill="#111827" font-family="Arial, sans-serif" font-size="14" font-weight="900">¥3,280</text><rect x="386" y="462" width="516" height="42" rx="13" fill="#fff"/><text x="408" y="489" fill="#111827" font-family="Arial, sans-serif" font-size="15" font-weight="800">考研资料套装</text><text x="608" y="489" fill="#64748b" font-family="Arial, sans-serif" font-size="14" font-weight="700">图书</text><text x="724" y="489" fill="#0f766e" font-family="Arial, sans-serif" font-size="14" font-weight="900">已上架</text><text x="824" y="489" fill="#111827" font-family="Arial, sans-serif" font-size="14" font-weight="900">¥89</text><rect x="386" y="516" width="516" height="42" rx="13" fill="#f8fafc"/><text x="408" y="543" fill="#111827" font-family="Arial, sans-serif" font-size="15" font-weight="800">宿舍折叠桌</text><text x="608" y="543" fill="#64748b" font-family="Arial, sans-serif" font-size="14" font-weight="700">生活</text><text x="724" y="543" fill="#0f766e" font-family="Arial, sans-serif" font-size="14" font-weight="900">交易中</text><text x="824" y="543" fill="#111827" font-family="Arial, sans-serif" font-size="14" font-weight="900">¥46</text><rect x="386" y="570" width="516" height="42" rx="13" fill="#fff"/><text x="408" y="597" fill="#111827" font-family="Arial, sans-serif" font-size="15" font-weight="800">山地车九成新</text><text x="608" y="597" fill="#64748b" font-family="Arial, sans-serif" font-size="14" font-weight="700">运动</text><text x="724" y="597" fill="#0f766e" font-family="Arial, sans-serif" font-size="14" font-weight="900">待确认</text><text x="824" y="597" fill="#111827" font-family="Arial, sans-serif" font-size="14" font-weight="900">¥468</text>
    <rect x="992" y="188" width="260" height="464" rx="22" fill="#f8fafc" stroke="#e2e8f0"/>
    <text x="1026" y="238" fill="#0f172a" font-family="Arial, sans-serif" font-size="22" font-weight="900">交易趋势</text>
    <path d="M1032 530 C1080 450 1110 492 1148 390 S1212 418 1230 306" fill="none" stroke="#0f766e" stroke-width="12" stroke-linecap="round"/>
    <circle cx="1084" cy="312" r="42" fill="#dcfce7"/><text x="1058" y="321" fill="#16a34a" font-family="Arial, sans-serif" font-size="22" font-weight="900">89%</text>
</svg>