<svg xmlns="http://www.w3.org/2000/svg" width="960" height="600" viewBox="0 0 960 600" role="img" aria-label="智慧校园数据可视化看板界面展示">
  <defs>
    <linearGradient id="bg" x1="0" x2="1" y1="0" y2="1"><stop offset="0" stop-color="#0f172a"/><stop offset="1" stop-color="#0f766e"/></linearGradient>
    <filter id="glow" x="-30%" y="-30%" width="160%" height="160%"><feGaussianBlur stdDeviation="8" result="b"/><feMerge><feMergeNode in="b"/><feMergeNode in="SourceGraphic"/></feMerge></filter>
  </defs>
  <rect width="960" height="600" fill="url(#bg)"/>
  <text x="70" y="92" fill="#e0f2fe" font-family="Arial, sans-serif" font-size="32" font-weight="800">Campus Data Center</text>
  <rect x="70" y="126" width="820" height="390" rx="28" fill="#ffffff" opacity=".1" stroke="#99f6e4"/>
  <rect x="108" y="170" width="168" height="92" rx="18" fill="#0ea5e9" opacity=".28"/>
  <rect x="300" y="170" width="168" height="92" rx="18" fill="#22c55e" opacity=".28"/>
  <rect x="492" y="170" width="168" height="92" rx="18" fill="#f59e0b" opacity=".28"/>
  <rect x="684" y="170" width="168" height="92" rx="18" fill="#a78bfa" opacity=".28"/>
  <text x="132" y="224" fill="#fff" font-family="Arial, sans-serif" font-size="34" font-weight="800">82%</text>
  <text x="324" y="224" fill="#fff" font-family="Arial, sans-serif" font-size="34" font-weight="800">12k</text>
  <text x="516" y="224" fill="#fff" font-family="Arial, sans-serif" font-size="34" font-weight="800">436</text>
  <text x="708" y="224" fill="#fff" font-family="Arial, sans-serif" font-size="34" font-weight="800">24h</text>
  <path d="M132 410c70-86 116-46 166-94 52-50 96-34 148 18 68 68 128-10 194-72 64-60 124-32 184 24" fill="none" stroke="#67e8f9" stroke-width="12" stroke-linecap="round" filter="url(#glow)"/>
  <rect x="118" y="442" width="704" height="12" rx="6" fill="#ccfbf1" opacity=".55"/>
  <circle cx="728" cy="298" r="70" fill="none" stroke="#facc15" stroke-width="18" opacity=".78"/>
</svg>
