<svg xmlns="http://www.w3.org/2000/svg" width="960" height="600" viewBox="0 0 960 600" role="img" aria-label="在线考试与题库管理系统界面展示">
  <defs>
    <linearGradient id="bg" x1="0" x2="1" y1="0" y2="1"><stop offset="0" stop-color="#fefce8"/><stop offset="1" stop-color="#f8fafc"/></linearGradient>
    <filter id="shadow" x="-20%" y="-20%" width="140%" height="140%"><feDropShadow dx="0" dy="18" stdDeviation="18" flood-color="#713f12" flood-opacity=".14"/></filter>
  </defs>
  <rect width="960" height="600" fill="url(#bg)"/>
  <rect x="92" y="74" width="776" height="452" rx="30" fill="#fff" filter="url(#shadow)"/>
  <rect x="132" y="120" width="696" height="56" rx="18" fill="#ca8a04"/>
  <text x="164" y="156" fill="#fff" font-family="Arial, sans-serif" font-size="24" font-weight="800">Online Exam</text>
  <rect x="132" y="222" width="452" height="240" rx="24" fill="#f8fafc" stroke="#e2e8f0"/>
  <rect x="626" y="222" width="202" height="240" rx="24" fill="#fffbeb" stroke="#fde68a"/>
  <rect x="172" y="264" width="360" height="14" rx="7" fill="#cbd5e1"/>
  <rect x="172" y="308" width="292" height="14" rx="7" fill="#fde68a"/>
  <rect x="172" y="352" width="328" height="14" rx="7" fill="#bbf7d0"/>
  <rect x="172" y="396" width="252" height="14" rx="7" fill="#bfdbfe"/>
  <circle cx="728" cy="312" r="58" fill="#facc15" opacity=".75"/>
  <text x="698" y="326" fill="#713f12" font-family="Arial, sans-serif" font-size="34" font-weight="900">92</text>
  <rect x="676" y="406" width="104" height="30" rx="15" fill="#ca8a04"/>
</svg>
