<svg xmlns="http://www.w3.org/2000/svg" width="960" height="600" viewBox="0 0 960 600" role="img" aria-label="宿舍报修与工单管理系统界面展示">
  <defs>
    <linearGradient id="bg" x1="0" x2="1" y1="0" y2="1"><stop offset="0" stop-color="#f8fafc"/><stop offset="1" stop-color="#e0f2fe"/></linearGradient>
    <filter id="shadow" x="-20%" y="-20%" width="140%" height="140%"><feDropShadow dx="0" dy="18" stdDeviation="18" flood-color="#1e293b" flood-opacity=".14"/></filter>
  </defs>
  <rect width="960" height="600" fill="url(#bg)"/>
  <rect x="84" y="76" width="792" height="448" rx="30" fill="#fff" filter="url(#shadow)"/>
  <rect x="126" y="122" width="708" height="58" rx="20" fill="#0f172a"/>
  <text x="158" y="158" fill="#fff" font-family="Arial, sans-serif" font-size="24" font-weight="800">Repair Workflow</text>
  <rect x="128" y="230" width="180" height="210" rx="24" fill="#ecfeff" stroke="#a5f3fc"/>
  <rect x="390" y="230" width="180" height="210" rx="24" fill="#f0fdf4" stroke="#bbf7d0"/>
  <rect x="652" y="230" width="180" height="210" rx="24" fill="#fff7ed" stroke="#fed7aa"/>
  <circle cx="218" cy="300" r="38" fill="#06b6d4"/>
  <circle cx="480" cy="300" r="38" fill="#22c55e"/>
  <circle cx="742" cy="300" r="38" fill="#f97316"/>
  <path d="M318 334h58M580 334h58" stroke="#94a3b8" stroke-width="12" stroke-linecap="round"/>
  <rect x="166" y="368" width="104" height="14" rx="7" fill="#0891b2" opacity=".6"/>
  <rect x="428" y="368" width="104" height="14" rx="7" fill="#15803d" opacity=".6"/>
  <rect x="690" y="368" width="104" height="14" rx="7" fill="#c2410c" opacity=".6"/>
</svg>
