<svg xmlns="http://www.w3.org/2000/svg" width="960" height="600" viewBox="0 0 960 600" role="img" aria-label="健身房会员预约小程序界面展示">
  <defs>
    <linearGradient id="bg" x1="0" x2="1" y1="0" y2="1"><stop offset="0" stop-color="#fce7f3"/><stop offset="1" stop-color="#e0f2fe"/></linearGradient>
    <filter id="shadow" x="-20%" y="-20%" width="140%" height="140%"><feDropShadow dx="0" dy="20" stdDeviation="18" flood-color="#831843" flood-opacity=".14"/></filter>
  </defs>
  <rect width="960" height="600" fill="url(#bg)"/>
  <rect x="330" y="42" width="300" height="516" rx="42" fill="#111827" filter="url(#shadow)"/>
  <rect x="352" y="80" width="256" height="440" rx="30" fill="#fff"/>
  <rect x="376" y="112" width="208" height="108" rx="28" fill="#db2777"/>
  <text x="408" y="170" fill="#fff" font-family="Arial, sans-serif" font-size="28" font-weight="800">Fit Booking</text>
  <rect x="376" y="254" width="92" height="86" rx="20" fill="#fce7f3"/>
  <rect x="492" y="254" width="92" height="86" rx="20" fill="#e0f2fe"/>
  <rect x="376" y="366" width="208" height="54" rx="20" fill="#f8fafc" stroke="#e2e8f0"/>
  <rect x="376" y="444" width="208" height="40" rx="20" fill="#db2777"/>
  <circle cx="422" cy="298" r="24" fill="#db2777"/>
  <circle cx="538" cy="298" r="24" fill="#0ea5e9"/>
  <path d="M210 420h120M650 178h120" stroke="#fff" stroke-width="32" stroke-linecap="round" opacity=".55"/>
</svg>
