<svg xmlns="http://www.w3.org/2000/svg" width="960" height="600" viewBox="0 0 960 600" role="img" aria-label="医院挂号预约管理系统界面展示">
  <defs>
    <linearGradient id="bg" x1="0" x2="1" y1="0" y2="1"><stop offset="0" stop-color="#eef2ff"/><stop offset="1" stop-color="#ecfeff"/></linearGradient>
    <filter id="shadow" x="-20%" y="-20%" width="140%" height="140%"><feDropShadow dx="0" dy="20" stdDeviation="18" flood-color="#312e81" flood-opacity=".14"/></filter>
  </defs>
  <rect width="960" height="600" fill="url(#bg)"/>
  <rect x="86" y="78" width="788" height="444" rx="30" fill="#fff" filter="url(#shadow)"/>
  <rect x="128" y="124" width="290" height="54" rx="27" fill="#4f46e5"/>
  <text x="158" y="159" fill="#fff" font-family="Arial, sans-serif" font-size="24" font-weight="800">Clinic Booking</text>
  <rect x="128" y="222" width="214" height="230" rx="24" fill="#eef2ff"/>
  <rect x="386" y="222" width="446" height="230" rx="24" fill="#f8fafc" stroke="#e2e8f0"/>
  <circle cx="236" cy="292" r="46" fill="#818cf8"/>
  <path d="M236 264v56M208 292h56" stroke="#fff" stroke-width="14" stroke-linecap="round"/>
  <rect x="416" y="258" width="362" height="16" rx="8" fill="#c7d2fe"/>
  <rect x="416" y="306" width="316" height="16" rx="8" fill="#bae6fd"/>
  <rect x="416" y="354" width="348" height="16" rx="8" fill="#bbf7d0"/>
  <rect x="416" y="402" width="252" height="16" rx="8" fill="#fed7aa"/>
</svg>
