<svg xmlns="http://www.w3.org/2000/svg" width="960" height="600" viewBox="0 0 960 600" role="img" aria-label="校园二手交易管理平台界面展示">
  <defs>
    <linearGradient id="bg" x1="0" x2="1" y1="0" y2="1">
      <stop offset="0" stop-color="#ecfeff"/>
      <stop offset="1" stop-color="#f8fafc"/>
    </linearGradient>
    <linearGradient id="panel" x1="0" x2="1" y1="0" y2="1">
      <stop offset="0" stop-color="#0f766e"/>
      <stop offset="1" stop-color="#155e75"/>
    </linearGradient>
    <filter id="shadow" x="-20%" y="-20%" width="140%" height="140%">
      <feDropShadow dx="0" dy="18" stdDeviation="18" flood-color="#0f172a" flood-opacity=".16"/>
    </filter>
  </defs>
  <rect width="960" height="600" fill="url(#bg)"/>
  <rect x="70" y="70" width="820" height="460" rx="28" fill="#fff" filter="url(#shadow)"/>
  <rect x="70" y="70" width="178" height="460" rx="28" fill="url(#panel)"/>
  <text x="112" y="132" fill="#fff" font-family="Arial, sans-serif" font-size="26" font-weight="700">Trade Admin</text>
  <rect x="112" y="174" width="94" height="12" rx="6" fill="#ccfbf1" opacity=".92"/>
  <rect x="112" y="214" width="104" height="12" rx="6" fill="#ffffff" opacity=".5"/>
  <rect x="112" y="252" width="86" height="12" rx="6" fill="#ffffff" opacity=".5"/>
  <rect x="112" y="290" width="118" height="12" rx="6" fill="#ffffff" opacity=".5"/>
  <rect x="286" y="108" width="244" height="38" rx="19" fill="#f1f5f9"/>
  <text x="306" y="133" fill="#334155" font-family="Arial, sans-serif" font-size="18" font-weight="700">商品审核 / 交易统计</text>
  <rect x="286" y="178" width="152" height="94" rx="18" fill="#ecfeff" stroke="#bae6fd"/>
  <rect x="462" y="178" width="152" height="94" rx="18" fill="#f0fdf4" stroke="#bbf7d0"/>
  <rect x="638" y="178" width="192" height="94" rx="18" fill="#fff7ed" stroke="#fed7aa"/>
  <text x="314" y="216" fill="#0f766e" font-family="Arial, sans-serif" font-size="32" font-weight="800">128</text>
  <text x="490" y="216" fill="#15803d" font-family="Arial, sans-serif" font-size="32" font-weight="800">46</text>
  <text x="666" y="216" fill="#c2410c" font-family="Arial, sans-serif" font-size="32" font-weight="800">89%</text>
  <rect x="286" y="314" width="544" height="156" rx="20" fill="#f8fafc" stroke="#e2e8f0"/>
  <rect x="318" y="344" width="480" height="14" rx="7" fill="#cbd5e1"/>
  <rect x="318" y="382" width="396" height="14" rx="7" fill="#99f6e4"/>
  <rect x="318" y="420" width="438" height="14" rx="7" fill="#bfdbfe"/>
  <circle cx="778" cy="389" r="50" fill="#0f766e" opacity=".12"/>
  <path d="M748 392h62" stroke="#0f766e" stroke-width="12" stroke-linecap="round"/>
</svg>
