<svg xmlns="http://www.w3.org/2000/svg" width="960" height="600" viewBox="0 0 960 600" role="img" aria-label="H5 农场互动小游戏界面展示">
  <defs>
    <linearGradient id="bg" x1="0" x2="1" y1="0" y2="1"><stop offset="0" stop-color="#dcfce7"/><stop offset="1" stop-color="#eff6ff"/></linearGradient>
    <filter id="shadow" x="-20%" y="-20%" width="140%" height="140%"><feDropShadow dx="0" dy="20" stdDeviation="18" flood-color="#14532d" flood-opacity=".16"/></filter>
  </defs>
  <rect width="960" height="600" fill="url(#bg)"/>
  <rect x="328" y="42" width="304" height="516" rx="42" fill="#0f172a" filter="url(#shadow)"/>
  <rect x="350" y="78" width="260" height="444" rx="30" fill="#f7fee7"/>
  <rect x="350" y="78" width="260" height="94" rx="30" fill="#16a34a"/>
  <text x="386" y="132" fill="#fff" font-family="Arial, sans-serif" font-size="28" font-weight="800">Farm Game</text>
  <rect x="382" y="198" width="196" height="108" rx="22" fill="#bbf7d0"/>
  <circle cx="430" cy="248" r="26" fill="#f97316"/>
  <circle cx="492" cy="252" r="26" fill="#22c55e"/>
  <circle cx="552" cy="248" r="26" fill="#eab308"/>
  <rect x="382" y="334" width="84" height="76" rx="18" fill="#fff" stroke="#86efac"/>
  <rect x="494" y="334" width="84" height="76" rx="18" fill="#fff" stroke="#86efac"/>
  <text x="405" y="382" fill="#15803d" font-family="Arial, sans-serif" font-size="28" font-weight="800">12</text>
  <text x="516" y="382" fill="#15803d" font-family="Arial, sans-serif" font-size="28" font-weight="800">03</text>
  <rect x="392" y="448" width="176" height="38" rx="19" fill="#16a34a"/>
  <text x="430" y="473" fill="#fff" font-family="Arial, sans-serif" font-size="18" font-weight="700">开始挑战</text>
  <circle cx="246" cy="178" r="64" fill="#fef3c7"/>
  <circle cx="716" cy="424" r="86" fill="#bfdbfe" opacity=".75"/>
</svg>
