<svg xmlns="http://www.w3.org/2000/svg" width="960" height="600" viewBox="0 0 960 600" role="img" aria-label="农产品销售商城系统界面展示">
  <defs>
    <linearGradient id="bg" x1="0" x2="1" y1="0" y2="1"><stop offset="0" stop-color="#fff7ed"/><stop offset="1" stop-color="#ecfdf5"/></linearGradient>
    <filter id="shadow" x="-20%" y="-20%" width="140%" height="140%"><feDropShadow dx="0" dy="18" stdDeviation="18" flood-color="#7c2d12" flood-opacity=".14"/></filter>
  </defs>
  <rect width="960" height="600" fill="url(#bg)"/>
  <rect x="76" y="74" width="808" height="452" rx="30" fill="#fff" filter="url(#shadow)"/>
  <rect x="116" y="116" width="728" height="56" rx="28" fill="#f97316"/>
  <text x="148" y="152" fill="#fff" font-family="Arial, sans-serif" font-size="24" font-weight="800">Fresh Market</text>
  <rect x="570" y="130" width="220" height="14" rx="7" fill="#fed7aa"/>
  <rect x="128" y="218" width="190" height="224" rx="24" fill="#f0fdf4" stroke="#bbf7d0"/>
  <rect x="384" y="218" width="190" height="224" rx="24" fill="#fffbeb" stroke="#fde68a"/>
  <rect x="640" y="218" width="190" height="224" rx="24" fill="#eff6ff" stroke="#bfdbfe"/>
  <circle cx="224" cy="292" r="48" fill="#22c55e"/>
  <circle cx="480" cy="292" r="48" fill="#f59e0b"/>
  <circle cx="736" cy="292" r="48" fill="#ef4444"/>
  <rect x="164" y="370" width="118" height="16" rx="8" fill="#14532d" opacity=".68"/>
  <rect x="420" y="370" width="118" height="16" rx="8" fill="#92400e" opacity=".68"/>
  <rect x="676" y="370" width="118" height="16" rx="8" fill="#991b1b" opacity=".68"/>
  <rect x="172" y="408" width="102" height="28" rx="14" fill="#16a34a"/>
  <rect x="428" y="408" width="102" height="28" rx="14" fill="#f97316"/>
  <rect x="684" y="408" width="102" height="28" rx="14" fill="#0ea5e9"/>
</svg>
